<svg xmlns="http://www.w3.org/2000/svg" xmlns:xlink="http://www.w3.org/1999/xlink" viewBox="0 0 388.72 337.46"><defs><style>.cls-1{fill:#36c185;}.cls-2{fill:#3bcc91;}.cls-3{fill:#1e1e33;}.cls-4{fill:#343535;}.cls-5{fill:#f7f7f7;}.cls-6{opacity:0.25;}.cls-7{fill:#d98e9d;}.cls-8{fill:#fff;}.cls-9{fill:#e0e4ed;}.cls-10{fill:#2d2c56;}.cls-11{fill:#37354c;}.cls-12{fill:#ead18c;}.cls-13,.cls-20{opacity:0.5;}.cls-13{fill:url(#Degradado_sin_nombre_15);}.cls-14{fill:url(#Degradado_sin_nombre_15-2);}.cls-15{fill:#eebcc5;}.cls-16{fill:#eff2f7;}.cls-17{fill:#2d2b42;}.cls-18{fill:url(#Degradado_sin_nombre_2);}.cls-19{fill:#737afb;}.cls-20{fill:url(#Nueva_muestra_de_degradado_4);}.cls-21{fill:url(#Nueva_muestra_de_degradado_4-2);}.cls-22{fill:url(#Degradado_sin_nombre_2-2);}.cls-23{fill:#9b5342;}.cls-24{fill:#bcbace;}.cls-25{fill:url(#Degradado_sin_nombre_2-3);}.cls-26{fill:#109499;}.cls-27{fill:url(#linear-gradient);}.cls-28{fill:url(#linear-gradient-2);}.cls-29{fill:url(#linear-gradient-3);}.cls-30{fill:url(#linear-gradient-4);}.cls-31{fill:url(#linear-gradient-5);}.cls-32{fill:url(#linear-gradient-6);}.cls-33{fill:url(#linear-gradient-7);}.cls-34{fill:url(#linear-gradient-8);}.cls-35{fill:url(#linear-gradient-9);}.cls-36{fill:url(#linear-gradient-10);}.cls-37{fill:url(#linear-gradient-11);}.cls-38{fill:url(#linear-gradient-12);}.cls-39{fill:url(#linear-gradient-13);}.cls-40{fill:url(#linear-gradient-14);}.cls-41{fill:url(#linear-gradient-15);}</style><linearGradient id="Degradado_sin_nombre_15" x1="80.11" y1="222.24" x2="95.7" y2="222.24" gradientUnits="userSpaceOnUse"><stop offset="0" stop-color="#ead18c" stop-opacity="0"/><stop offset="1" stop-color="#524f63" stop-opacity="0.7"/></linearGradient><linearGradient id="Degradado_sin_nombre_15-2" x1="76.21" y1="237.08" x2="161.76" y2="203.25" xlink:href="#Degradado_sin_nombre_15"/><linearGradient id="Degradado_sin_nombre_2" x1="81.17" y1="241.6" x2="5.3" y2="239.8" gradientUnits="userSpaceOnUse"><stop offset="0" stop-color="#484ec2" stop-opacity="0"/><stop offset="1" stop-color="#444bcc" stop-opacity="0.5"/></linearGradient><linearGradient id="Nueva_muestra_de_degradado_4" x1="272.11" y1="222.24" x2="287.7" y2="222.24" gradientTransform="matrix(-1, 0, 0, 1, 598.56, 0)" gradientUnits="userSpaceOnUse"><stop offset="0" stop-color="#d37897" stop-opacity="0"/><stop offset="0.9" stop-color="#bc547c"/></linearGradient><linearGradient id="Nueva_muestra_de_degradado_4-2" x1="277.02" y1="249.57" x2="362.57" y2="215.73" gradientTransform="matrix(-1, 0, 0, 1, 589.76, -12.49)" xlink:href="#Nueva_muestra_de_degradado_4"/><linearGradient id="Degradado_sin_nombre_2-2" x1="273.17" y1="241.6" x2="197.3" y2="239.8" gradientTransform="matrix(-1, 0, 0, 1, 598.56, 0)" xlink:href="#Degradado_sin_nombre_2"/><linearGradient id="Degradado_sin_nombre_2-3" x1="194.57" y1="251.65" x2="149.73" y2="252.71" xlink:href="#Degradado_sin_nombre_2"/><linearGradient id="linear-gradient" x1="220.29" y1="1001.81" x2="225.29" y2="1010.47" gradientTransform="translate(-50.26 -760.52) rotate(-1.15)" gradientUnits="userSpaceOnUse"><stop offset="0" stop-color="#fff" stop-opacity="0.2"/><stop offset="1" stop-color="#0f393a" stop-opacity="0.2"/></linearGradient><linearGradient id="linear-gradient-2" x1="220.73" y1="984.06" x2="220.73" y2="979.58" gradientTransform="translate(-40.9 -724.03) rotate(-1.15)" gradientUnits="userSpaceOnUse"><stop offset="0" stop-color="#2d3535"/><stop offset="1" stop-color="#040f0f"/></linearGradient><linearGradient id="linear-gradient-3" x1="223.08" y1="985.83" x2="223.08" y2="980.94" gradientTransform="translate(-40.9 -724.03) rotate(-1.15)" gradientUnits="userSpaceOnUse"><stop offset="0" stop-color="#2d3535"/><stop offset="1" stop-color="#192121"/></linearGradient><linearGradient id="linear-gradient-4" x1="222.12" y1="985.83" x2="222.12" y2="980.94" xlink:href="#linear-gradient-3"/><linearGradient id="linear-gradient-5" x1="224.49" y1="984.06" x2="224.49" y2="979.58" xlink:href="#linear-gradient-2"/><linearGradient id="linear-gradient-6" x1="353.9" y1="995.38" x2="358.9" y2="1004.04" gradientTransform="matrix(0.02, 1, -0.92, 0.02, 1249.72, -131.53)" xlink:href="#linear-gradient"/><linearGradient id="linear-gradient-7" x1="354.34" y1="977.63" x2="354.34" y2="973.15" gradientTransform="matrix(0.99, 0.1, -0.09, 0.92, 69.89, -687)" xlink:href="#linear-gradient-2"/><linearGradient id="linear-gradient-8" x1="356.69" y1="979.4" x2="356.69" y2="974.52" gradientTransform="matrix(0.99, 0.1, -0.09, 0.92, 69.89, -687)" xlink:href="#linear-gradient-3"/><linearGradient id="linear-gradient-9" x1="355.73" y1="979.4" x2="355.73" y2="974.52" gradientTransform="matrix(0.99, 0.1, -0.09, 0.92, 69.89, -687)" xlink:href="#linear-gradient-3"/><linearGradient id="linear-gradient-10" x1="358.11" y1="977.63" x2="358.11" y2="973.15" gradientTransform="matrix(0.99, 0.1, -0.09, 0.92, 69.89, -687)" xlink:href="#linear-gradient-2"/><linearGradient id="linear-gradient-11" x1="90.93" y1="990.06" x2="95.93" y2="998.72" gradientTransform="matrix(1, -0.02, 0.02, 0.93, -41.41, -682.39)" xlink:href="#linear-gradient"/><linearGradient id="linear-gradient-12" x1="91.37" y1="972.31" x2="91.37" y2="967.83" gradientTransform="matrix(1, -0.1, 0.09, 0.93, -111.31, -648.38)" xlink:href="#linear-gradient-2"/><linearGradient id="linear-gradient-13" x1="93.72" y1="974.08" x2="93.72" y2="969.19" gradientTransform="matrix(1, -0.1, 0.09, 0.93, -111.31, -648.38)" xlink:href="#linear-gradient-3"/><linearGradient id="linear-gradient-14" x1="92.76" y1="974.08" x2="92.76" y2="969.19" gradientTransform="matrix(1, -0.1, 0.09, 0.93, -111.31, -648.38)" xlink:href="#linear-gradient-3"/><linearGradient id="linear-gradient-15" x1="95.14" y1="972.31" x2="95.14" y2="967.83" gradientTransform="matrix(1, -0.1, 0.09, 0.93, -111.31, -648.38)" xlink:href="#linear-gradient-2"/></defs><title>develop</title><g id="OBJECTS"><path class="cls-1" d="M378.88,12.49H28.31A12.71,12.71,0,0,0,15.59,25.21V266.64h376V25.21A12.71,12.71,0,0,0,378.88,12.49Z" transform="translate(-8.81 -12.49)"/><path class="cls-2" d="M378.43,17.84H28.76a7.86,7.86,0,0,0-7.85,7.86V263H386.28V25.7A7.85,7.85,0,0,0,378.43,17.84Z" transform="translate(-8.81 -12.49)"/><rect class="cls-3" x="25.23" y="22.91" width="339.11" height="219.25"/><path class="cls-4" d="M393.55,264.3H12.79a4.23,4.23,0,0,0-4,4.45v5.77a4.23,4.23,0,0,0,4,4.45H393.55a4.23,4.23,0,0,0,4-4.45v-5.77A4.23,4.23,0,0,0,393.55,264.3Z" transform="translate(-8.81 -12.49)"/><path class="cls-5" d="M205.5,27.69a1.91,1.91,0,1,1-1.9-1.9A1.9,1.9,0,0,1,205.5,27.69Z" transform="translate(-8.81 -12.49)"/><g class="cls-6"><rect class="cls-7" x="67.79" y="35" width="34" height="6"/><rect class="cls-8" x="37.08" y="35" width="14" height="6"/><rect class="cls-8" x="37.08" y="46" width="14" height="6"/><rect class="cls-8" x="37.08" y="59" width="14" height="6"/><rect class="cls-8" x="37.08" y="72" width="14" height="6"/><rect class="cls-8" x="37.08" y="85" width="14" height="6"/><rect class="cls-8" x="37.08" y="98" width="14" height="6"/><rect class="cls-9" x="108.79" y="35" width="114" height="6"/><rect class="cls-7" x="79.79" y="46" width="34" height="6"/><rect class="cls-9" x="120.79" y="46" width="114.01" height="6"/><rect class="cls-7" x="99.79" y="59" width="34" height="6"/><rect class="cls-9" x="140.79" y="59" width="114" height="6"/><rect class="cls-7" x="119.79" y="72" width="34" height="6"/><rect class="cls-9" x="160.79" y="72" width="114.01" height="6"/><rect class="cls-7" x="99.79" y="85" width="34" height="6"/><rect class="cls-9" x="140.79" y="85" width="174.01" height="6"/><rect class="cls-7" x="79.79" y="98" width="34" height="6"/><rect class="cls-9" x="120.79" y="98" width="74" height="6"/></g><g class="cls-6"><rect class="cls-7" x="67.79" y="115.02" width="34" height="6"/><rect class="cls-8" x="37.08" y="115.02" width="14" height="6"/><rect class="cls-8" x="37.08" y="126.02" width="14" height="6"/><rect class="cls-8" x="37.08" y="139.02" width="14" height="6"/><rect class="cls-8" x="37.08" y="152.02" width="14" height="6"/><rect class="cls-8" x="37.08" y="165.02" width="14" height="6"/><rect class="cls-8" x="37.08" y="178.02" width="14" height="6"/><rect class="cls-9" x="108.79" y="115.02" width="114" height="6"/><rect class="cls-7" x="79.79" y="126.02" width="34" height="6"/><rect class="cls-9" x="120.79" y="126.02" width="114.01" height="6"/><rect class="cls-7" x="99.79" y="139.02" width="34" height="6"/><rect class="cls-9" x="140.79" y="139.02" width="114" height="6"/><rect class="cls-7" x="67.79" y="195.02" width="34" height="6"/><rect class="cls-8" x="37.08" y="195.02" width="14" height="6"/><rect class="cls-8" x="37.08" y="206.02" width="14" height="6"/><rect class="cls-8" x="37.08" y="219.02" width="14" height="6"/><rect class="cls-9" x="108.79" y="195.02" width="114" height="6"/><rect class="cls-7" x="79.79" y="206.02" width="34" height="6"/><rect class="cls-9" x="120.79" y="206.02" width="114.01" height="6"/><rect class="cls-7" x="99.79" y="219.02" width="34" height="6"/><rect class="cls-9" x="140.79" y="219.02" width="114" height="6"/><rect class="cls-7" x="119.79" y="152.02" width="34" height="6"/><rect class="cls-9" x="160.79" y="152.02" width="174.01" height="6"/><rect class="cls-7" x="99.79" y="165.02" width="34" height="6"/><rect class="cls-9" x="140.79" y="165.02" width="114" height="6"/><rect class="cls-7" x="79.79" y="178.02" width="34" height="6"/><rect class="cls-9" x="120.79" y="178.02" width="114.01" height="6"/></g><path class="cls-10" d="M100,320.85l.06,7.21s-.91,4.61-1.64,9.53-1.28,10.14-.55,11.35c1.46,2.43,4.37,0,4.86-2.43S103.9,329,103.9,329l.49-9.72Z" transform="translate(-8.81 -12.49)"/><path class="cls-10" d="M92.59,319.89l1.11,6.47s2.19,17.72,1,20.39-5.1,1.46-4.85-2.18-.73-16.51-.73-16.51l-2.19-7.77Z" transform="translate(-8.81 -12.49)"/><path class="cls-11" d="M95.6,240.93l.53,8-20.56,9.92a8.88,8.88,0,0,0-4.28,10.38l14.25,52.92,7-2.24-6.26-48.68A5.53,5.53,0,0,1,90.94,265l7.32-1.15,7.8-7.94L97,264a8.87,8.87,0,0,0-2.86,7.78L100,320.85l6.42,1.6,2.86-48.36a7.49,7.49,0,0,1,5.2-6.63l12.67-4a7,7,0,0,0,3.34-5.75l-.54-17Z" transform="translate(-8.81 -12.49)"/><path class="cls-12" d="M131.22,258.79l-3.4-66.08s-14-.85-18.23-.85c-2.28,0-6.18,1.08-9.25,2.07-2.88.92-5.28.84-6.69,3.53L70.6,241.64,84.77,243l4.72-5.4L87.09,234l8.61-20.3L94,250.52Z" transform="translate(-8.81 -12.49)"/><path class="cls-13" d="M95.39,205.59,80.11,233.2l4.76,5.57a8.37,8.37,0,0,0,3.77-.21l.85-1L87.09,234l8.61-20.3Z" transform="translate(-8.81 -12.49)"/><path class="cls-8" d="M113.72,203.46a8.41,8.41,0,0,0,8.41-8.41,8.52,8.52,0,0,0-.44-2.69c-4.33-.23-9.76-.5-12.1-.5a19,19,0,0,0-3.85.56,8.39,8.39,0,0,0,8,11Z" transform="translate(-8.81 -12.49)"/><polygon class="cls-14" points="120.68 191.62 122.41 246.68 99.67 241.23 120.68 191.62"/><path class="cls-15" d="M108.17,185.07c.39.78,3.15,11.63,3.15,11.63a3.5,3.5,0,0,0,3.35,1.57c2.37-.19,3.35-3.54,3.35-3.54l-4.14-13.61Z" transform="translate(-8.81 -12.49)"/><path class="cls-15" d="M122.76,178.39c0,7.47-7.93,15.73-15.4,15.73s-11.65-8.26-11.65-15.73a13.53,13.53,0,0,1,27.05,0Z" transform="translate(-8.81 -12.49)"/><circle class="cls-15" cx="108.96" cy="179.47" r="15.23" transform="translate(-94.52 245.64) rotate(-80.74)"/><path class="cls-16" d="M98.18,190.77a5.19,5.19,0,0,1-4.44-3.39,2.84,2.84,0,0,1,.19-2.63,2.34,2.34,0,0,1,2-.93,5.22,5.22,0,0,1,4.45,3.39,2.87,2.87,0,0,1-.2,2.63A2.32,2.32,0,0,1,98.18,190.77Zm-2.28-6.42a1.8,1.8,0,0,0-1.53.7,2.39,2.39,0,0,0-.14,2.16,4.65,4.65,0,0,0,4,3,1.8,1.8,0,0,0,1.53-.7,2.39,2.39,0,0,0,.14-2.16A4.65,4.65,0,0,0,95.9,184.35Z" transform="translate(-8.81 -12.49)"/><path class="cls-16" d="M107.15,190.77a5.22,5.22,0,0,1-4.45-3.39,2.87,2.87,0,0,1,.2-2.63,2.32,2.32,0,0,1,2-.93,5.2,5.2,0,0,1,4.44,3.39,2.87,2.87,0,0,1-.19,2.63A2.34,2.34,0,0,1,107.15,190.77Zm-2.28-6.42a1.8,1.8,0,0,0-1.53.7,2.39,2.39,0,0,0-.14,2.16,4.65,4.65,0,0,0,4,3,1.8,1.8,0,0,0,1.53-.7,2.39,2.39,0,0,0,.14-2.16A4.65,4.65,0,0,0,104.87,184.35Z" transform="translate(-8.81 -12.49)"/><path class="cls-17" d="M99.78,188.22c.25.42.21.89-.08,1.06s-.72,0-1-.46-.21-.9.08-1.06S99.54,187.79,99.78,188.22Z" transform="translate(-8.81 -12.49)"/><path class="cls-17" d="M106.55,188.54c.24.42.2.89-.09,1.06s-.72,0-1-.46-.2-.9.08-1.06S106.31,188.12,106.55,188.54Z" transform="translate(-8.81 -12.49)"/><path class="cls-15" d="M111.81,252.44c-.59-.2-5.58-2.62-9.13-2.62s-7.89,3.75-7.89,3.75-.59,2,1.78,1.57-.33,1.49-.33,1.49a21,21,0,0,0,2.89.49c2.76.39,13.52-.19,13.52-.19Z" transform="translate(-8.81 -12.49)"/><path class="cls-12" d="M127.82,192.71l1.91,43.49-17.88,16.18.85,4.54,25.18-13.45a6.59,6.59,0,0,0,3.42-6.71l-4.59-33.29a12,12,0,0,0-6.63-9.65Z" transform="translate(-8.81 -12.49)"/><path class="cls-8" d="M113.65,260.65H68.11v-3.34h45.54a1.67,1.67,0,0,1,1.67,1.67h0A1.67,1.67,0,0,1,113.65,260.65Z" transform="translate(-8.81 -12.49)"/><path class="cls-8" d="M101.15,260.65H57.24a4.29,4.29,0,0,1-4.14-3.19l-7.75-29.2a4.28,4.28,0,0,1,4.14-5.38H87.84A4.29,4.29,0,0,1,92,226.06Z" transform="translate(-8.81 -12.49)"/><path class="cls-18" d="M49.49,222.88a4.28,4.28,0,0,0-4.14,5.38l7.75,29.2a4.34,4.34,0,0,0,1.44,2.23l26.7-36.81Z" transform="translate(-8.81 -12.49)"/><path class="cls-19" d="M109,164.25a15.21,15.21,0,0,0-15.12,13.46,12.1,12.1,0,0,0,18.26-4.57,21.41,21.41,0,0,0,0,5.06,7.21,7.21,0,0,0,2.31,4.39,7.67,7.67,0,0,1,.83-3.42,2.63,2.63,0,0,1,3-1.3,2.45,2.45,0,0,1,1.41,2,5,5,0,0,1-.4,2.49,10.79,10.79,0,0,1-2.12,3.37,22.1,22.1,0,0,0,5.5.33A15.2,15.2,0,0,0,109,164.25Z" transform="translate(-8.81 -12.49)"/><path class="cls-15" d="M122,182a4.62,4.62,0,1,1-4.61-4.61A4.61,4.61,0,0,1,122,182Z" transform="translate(-8.81 -12.49)"/><polygon class="cls-15" points="83.78 307.4 84.61 312.23 79.77 313.76 78.43 308.99 83.78 307.4"/><polygon class="cls-15" points="91.19 313.76 95.19 314.53 95.45 309.44 91.16 308.36 91.19 313.76"/><path class="cls-10" d="M306.6,320.85l-.05,7.21s.91,4.61,1.64,9.53,1.27,10.14.54,11.35c-1.45,2.43-4.37,0-4.85-2.43S302.66,329,302.66,329l-.48-9.72Z" transform="translate(-8.81 -12.49)"/><path class="cls-10" d="M314,319.89l-1.11,6.47s-2.18,17.72-1,20.39,5.1,1.46,4.86-2.18.73-16.51.73-16.51l2.18-7.77Z" transform="translate(-8.81 -12.49)"/><path class="cls-19" d="M311,240.93l-.53,8L331,258.83a8.86,8.86,0,0,1,4.27,10.38L321,322.13,314,319.89l6.26-48.68a5.52,5.52,0,0,0-4.6-6.26l-7.32-1.15-7.8-7.94,9,8.09a8.85,8.85,0,0,1,2.87,7.78l-5.79,49.12-6.41,1.6-2.86-48.36a7.49,7.49,0,0,0-5.2-6.63l-12.68-4a7,7,0,0,1-3.33-5.75l.53-17Z" transform="translate(-8.81 -12.49)"/><path class="cls-7" d="M275.35,258.79l3.39-66.08s14.06-.85,18.24-.85c2.28,0,6.17,1.08,9.24,2.07,2.89.92,5.29.84,6.69,3.53l23,44.18L321.8,243l-4.72-5.4,2.4-3.64-8.61-20.3,1.69,36.87Z" transform="translate(-8.81 -12.49)"/><path class="cls-20" d="M311.17,205.59l15.28,27.61-4.76,5.57a8.37,8.37,0,0,1-3.77-.21l-.84-1,2.4-3.64-8.61-20.3Z" transform="translate(-8.81 -12.49)"/><path class="cls-8" d="M297.6,211.82c-4.65,0-13.17-12.13-13.17-16.77a8.25,8.25,0,0,1,.45-2.69c4.33-.23,9.76-.5,12.1-.5a19,19,0,0,1,3.85.56,8.47,8.47,0,0,1,.42,2.63C301.25,199.69,302.24,211.82,297.6,211.82Z" transform="translate(-8.81 -12.49)"/><polygon class="cls-21" points="268.27 191.62 266.54 246.68 289.28 241.23 268.27 191.62"/><path class="cls-15" d="M298.4,185.07c-.4.78-3.16,11.63-3.16,11.63a3.48,3.48,0,0,1-3.35,1.57c-2.36-.19-3.35-3.54-3.35-3.54l4.14-13.61Z" transform="translate(-8.81 -12.49)"/><path class="cls-15" d="M283.81,178.39c0,7.47,7.93,15.73,15.4,15.73s11.64-8.26,11.64-15.73a13.52,13.52,0,0,0-27,0Z" transform="translate(-8.81 -12.49)"/><circle class="cls-15" cx="297.61" cy="179.47" r="15.23" transform="translate(-33.81 37.75) rotate(-9.26)"/><path class="cls-17" d="M307.64,187.75a1,1,0,0,0,.1,1.33c.36.21.9-.05,1.2-.58a1,1,0,0,0-.1-1.33C308.48,187,307.94,187.22,307.64,187.75Z" transform="translate(-8.81 -12.49)"/><path class="cls-17" d="M300,188.58c-.33.57-.28,1.23.12,1.46s1-.06,1.32-.63.28-1.24-.11-1.46S300.31,188,300,188.58Z" transform="translate(-8.81 -12.49)"/><path class="cls-15" d="M294.75,252.44c.59-.2,5.59-2.62,9.14-2.62s7.88,3.75,7.88,3.75.59,2-1.77,1.57.32,1.49.32,1.49a20.27,20.27,0,0,1-2.88.49c-2.76.39-13.52-.19-13.52-.19Z" transform="translate(-8.81 -12.49)"/><path class="cls-7" d="M278.74,192.71l-1.9,43.49,17.88,16.18-.85,4.54-25.18-13.45a6.57,6.57,0,0,1-3.42-6.71l4.59-33.29a12,12,0,0,1,6.63-9.65Z" transform="translate(-8.81 -12.49)"/><path class="cls-8" d="M292.92,260.65h45.54v-3.34H292.92a1.67,1.67,0,0,0-1.67,1.67h0A1.67,1.67,0,0,0,292.92,260.65Z" transform="translate(-8.81 -12.49)"/><path class="cls-8" d="M305.41,260.65h43.92a4.29,4.29,0,0,0,4.14-3.19l7.75-29.2a4.28,4.28,0,0,0-4.14-5.38H318.73a4.29,4.29,0,0,0-4.14,3.18Z" transform="translate(-8.81 -12.49)"/><path class="cls-22" d="M357.08,222.88a4.28,4.28,0,0,1,4.14,5.38l-7.75,29.2a4.3,4.3,0,0,1-1.45,2.23l-26.7-36.81Z" transform="translate(-8.81 -12.49)"/><path class="cls-19" d="M297.61,164.25a15.21,15.21,0,0,1,15.11,13.46,12.09,12.09,0,0,1-18.25-4.57,21.41,21.41,0,0,1-.05,5.06,7.2,7.2,0,0,1-2.3,4.39,7.67,7.67,0,0,0-.83-3.42,2.64,2.64,0,0,0-3-1.3,2.48,2.48,0,0,0-1.42,2,5,5,0,0,0,.41,2.49,11,11,0,0,0,2.11,3.37,22,22,0,0,1-5.49.33,15.06,15.06,0,0,1-1.51-6.57A15.22,15.22,0,0,1,297.61,164.25Z" transform="translate(-8.81 -12.49)"/><path class="cls-15" d="M284.55,182a4.61,4.61,0,1,0,4.61-4.61A4.6,4.6,0,0,0,284.55,182Z" transform="translate(-8.81 -12.49)"/><polygon class="cls-15" points="305.17 307.4 304.33 312.23 309.18 313.76 310.52 308.99 305.17 307.4"/><polygon class="cls-15" points="297.75 313.76 293.75 314.53 293.5 309.44 297.79 308.36 297.75 313.76"/><circle class="cls-19" cx="280.37" cy="150.45" r="9.82"/><path class="cls-11" d="M197.36,166.46l-5.4,6.63-2.7,5.65-2.48,7.09s-4.38,4.09-4.14,4.14-.26,5,.23,5.71,5.42,6.63,5.42,6.63,4.77,3.11,6.68,3.52,11.48,4.58,11.48,4.58l5.89-5.64-2.21-3s6.14-3.68,6.88-4.18,3.68-3.43,3.68-3.43a26.12,26.12,0,0,0-.55-4.24c-.43-1.66-3.38-9.76-3.38-9.76s-3.93-5.65-4.42-6.63-2.7-4.18-2.7-4.18Z" transform="translate(-8.81 -12.49)"/><path class="cls-19" d="M187.45,202.22h29.46a4.09,4.09,0,0,1,4.09,4.09v38.28a0,0,0,0,1,0,0H183.36a0,0,0,0,1,0,0V206.31a4.09,4.09,0,0,1,4.09-4.09Z" transform="translate(-10.5 -10.94) rotate(-0.44)"/><path class="cls-11" d="M194.92,202.31s2.85,3.28,2.85,10.15S198,232,198,232l8.45,0V212.13a15.56,15.56,0,0,1,4.68-12l-9.2.24Z" transform="translate(-8.81 -12.49)"/><path class="cls-15" d="M201.77,210.3h0a4.59,4.59,0,0,1-4.62-4.55l-.1-13.92a.61.61,0,0,1,.61-.62l7.93-.07a.62.62,0,0,1,.62.62l.11,13.92A4.59,4.59,0,0,1,201.77,210.3Z" transform="translate(-8.81 -12.49)"/><path class="cls-23" d="M217.7,188.62c0-.16,0-.31,0-.47a16,16,0,0,0-.5-4v-1.78a15.93,15.93,0,0,0-15.88-15.88h0a15.92,15.92,0,0,0-15.88,15.88v6.25Z" transform="translate(-8.81 -12.49)"/><path class="cls-15" d="M216,184.19v-1.53A14.7,14.7,0,0,0,201.35,168h0a14.69,14.69,0,0,0-14.65,14.65v6a5.67,5.67,0,0,0,.13,1.17A14.88,14.88,0,1,0,216,184.19Z" transform="translate(-8.81 -12.49)"/><path class="cls-11" d="M196.85,190.51a1.13,1.13,0,1,1-1.13-1.13A1.12,1.12,0,0,1,196.85,190.51Z" transform="translate(-8.81 -12.49)"/><path class="cls-11" d="M207.55,190.51a1.13,1.13,0,1,1-1.13-1.13A1.13,1.13,0,0,1,207.55,190.51Z" transform="translate(-8.81 -12.49)"/><path class="cls-15" d="M190.92,190a4.14,4.14,0,1,1-4.14-4.14A4.14,4.14,0,0,1,190.92,190Z" transform="translate(-8.81 -12.49)"/><path class="cls-15" d="M220.14,190a4.15,4.15,0,1,1-4.14-4.14A4.15,4.15,0,0,1,220.14,190Z" transform="translate(-8.81 -12.49)"/><path class="cls-24" d="M202.47,261.43,184,270.09l3.41,56.27h-6.6l-13.37-57.7a6.09,6.09,0,0,1,2.75-6.56l17.45-10.69Z" transform="translate(-8.81 -12.49)"/><path class="cls-7" d="M186.68,187.25a2.73,2.73,0,0,0,0,5.44Z" transform="translate(-8.81 -12.49)"/><path class="cls-7" d="M215.71,187.25a2.73,2.73,0,0,1,0,5.44Z" transform="translate(-8.81 -12.49)"/><rect class="cls-11" x="189.11" y="201.33" width="8.51" height="45.35"/><path class="cls-11" d="M211.64,184.19c.39,1.26,1,2.7,2.24,3.06a3.64,3.64,0,0,0,2.9-.85,2.19,2.19,0,0,0,1-1.3,2.23,2.23,0,0,0-.39-1.35,23.88,23.88,0,0,0-3-4.65c-1.1-1.22-3.06-3.22-4.22-1.11C209.4,179.42,211.19,182.76,211.64,184.19Z" transform="translate(-8.81 -12.49)"/><path class="cls-11" d="M213.18,174.81A19.33,19.33,0,0,0,201.61,171l.18-2.62c-4.31,0-8.46,4-11.69,6.43,2.82,3.21,7,6.24,11.55,6.24S210.36,178,213.18,174.81Z" transform="translate(-8.81 -12.49)"/><path class="cls-19" d="M162.68,236.91a3.51,3.51,0,0,1-.48-2.8c2.12-8.48,17.26-28.41,17.93-29.24,1-1.26,6.18-2.39,6.18-2.39l.6,13.69-13.68,16.08a3.48,3.48,0,0,0-.47,3.79l10.8,22-5.69,1.6Z" transform="translate(-8.81 -12.49)"/><path class="cls-24" d="M212,251.41,229.5,262.1a6.1,6.1,0,0,1,2.74,6.56l-13.37,57.7h-6.6l3.42-56.27-18.46-8.66Z" transform="translate(-8.81 -12.49)"/><path class="cls-19" d="M239.28,236.45a3.72,3.72,0,0,0,.44-2.53c-1.67-8.28-15.22-28.21-15.89-29-1-1.26-6.18-2.39-6.18-2.39l-.6,13.69,11.77,15.7a3.8,3.8,0,0,1,.48,3.67L220.4,258l5.69,1.6Z" transform="translate(-8.81 -12.49)"/><path class="cls-11" d="M191.19,184.19c-.39,1.26-1,2.7-2.24,3.06a3.64,3.64,0,0,1-2.9-.85,2.12,2.12,0,0,1-1-1.3,2.23,2.23,0,0,1,.39-1.35,23.88,23.88,0,0,1,3-4.65c1.09-1.22,3.06-3.22,4.22-1.11C193.42,179.42,191.64,182.76,191.19,184.19Z" transform="translate(-8.81 -12.49)"/><path class="cls-15" d="M186.15,258.22a4.77,4.77,0,1,1-4.77-4.77A4.78,4.78,0,0,1,186.15,258.22Z" transform="translate(-8.81 -12.49)"/><path class="cls-19" d="M214.58,170.88c-2-5.12-12.89-6.85-13-6.88h0c-.14,0-11.08,1.76-13,6.88s-7.84,19.64-7.59,23.57,7.36,7.86,7.36,7.86h6.63s-9.82-6.63-10.8-9.58,2.7-6.14,3.66-6.9a59.28,59.28,0,0,1,10.73-13.74,4.49,4.49,0,0,1,6.08,0,59.28,59.28,0,0,1,10.73,13.74c1,.76,4.64,4,3.66,6.9s-9.78,9.53-9.78,9.53l5.61.05s7.12-3.93,7.36-7.86S216.54,176,214.58,170.88Z" transform="translate(-8.81 -12.49)"/><path class="cls-15" d="M227.75,259.08a4.77,4.77,0,1,0-5,4.47A4.77,4.77,0,0,0,227.75,259.08Z" transform="translate(-8.81 -12.49)"/><path class="cls-19" d="M220.74,237.51V258s-11.58,4.33-13.24,4.1-1.65-18.22-1.65-18.22l2.12-5.47Z" transform="translate(-8.81 -12.49)"/><path class="cls-19" d="M183.56,237.51V258s11.58,4.33,13.23,4.1,1.66-18.22,1.66-18.22l-2.13-5.47Z" transform="translate(-8.81 -12.49)"/><path class="cls-10" d="M187.43,326.36l.91,8.43s-8.54,14.14-11.9,14.48-1.92-5.62,0-8.34,5.68-8.45,5.68-8.45l1.44-6.12Z" transform="translate(-8.81 -12.49)"/><path class="cls-10" d="M213.46,326.36l-.91,8.43s8.54,14.14,11.9,14.48,1.92-5.62,0-8.34-5.68-8.45-5.68-8.45l-1.44-6.12Z" transform="translate(-8.81 -12.49)"/><path class="cls-8" d="M180.82,263.83h43.3a3.53,3.53,0,0,0,3.44-2.73l3.66-15.65a4.92,4.92,0,0,0-4.88-5.79l-49.59.37a4.93,4.93,0,0,0-4.8,5.87l5.54,15.58A3.55,3.55,0,0,0,180.82,263.83Z" transform="translate(-8.81 -12.49)"/><path class="cls-25" d="M207.31,239.8l-30.56.23a4.93,4.93,0,0,0-4.8,5.87l5.54,15.58a3.55,3.55,0,0,0,3.33,2.35h7.77Z" transform="translate(-8.81 -12.49)"/></g><g id="Layer_2" data-name="Layer 2"><circle class="cls-26" cx="192.53" cy="240.96" r="5"/><circle class="cls-27" cx="192.53" cy="240.96" r="5"/><path id="LEAR" class="cls-28" d="M198.5,251.1l.88,1.46a.08.08,0,0,1,0,.07l0,1.9a.13.13,0,0,0,0,.09l.7.68a.13.13,0,0,0,.19,0,.11.11,0,0,0,0-.09l-.07-2.85a.19.19,0,0,0,0-.07l-.66-1.09a.15.15,0,0,0-.09-.06l-.92-.22a.14.14,0,0,0-.17.1A.28.28,0,0,0,198.5,251.1Z" transform="translate(-8.81 -12.49)"/><path id="REYE" class="cls-29" d="M202.27,252.32l.09,3.9a.11.11,0,0,1,0,.07l-.73.77a.11.11,0,0,1-.18-.07l-.11-4.69a.11.11,0,0,1,.1-.11h.72a.14.14,0,0,1,.14.12Z" transform="translate(-8.81 -12.49)"/><path id="LEYE" class="cls-30" d="M200.35,252.37l.09,3.89a.13.13,0,0,0,0,.08l.77.72a.11.11,0,0,0,.18-.07l-.11-4.69a.1.1,0,0,0-.11-.1h-.72a.15.15,0,0,0-.14.13A.06.06,0,0,0,200.35,252.37Z" transform="translate(-8.81 -12.49)"/><path id="REAR" class="cls-31" d="M204.07,251l-.8,1.5a.09.09,0,0,0,0,.07l0,1.9a.13.13,0,0,1,0,.1l-.66.7a.13.13,0,0,1-.19,0,.14.14,0,0,1,0-.1l-.06-2.84a.08.08,0,0,1,0-.07l.61-1.13a.13.13,0,0,1,.08-.07l.92-.26a.12.12,0,0,1,.14.11A.19.19,0,0,1,204.07,251Z" transform="translate(-8.81 -12.49)"/><ellipse class="cls-26" cx="334.77" cy="244.74" rx="4.61" ry="5" transform="translate(42.5 534.94) rotate(-83.05)"/><ellipse class="cls-32" cx="334.77" cy="244.74" rx="4.61" ry="5" transform="translate(42.5 534.94) rotate(-83.05)"/><path id="LEAR-2" data-name="LEAR" class="cls-33" d="M332.22,242.25l.72,1.44a.13.13,0,0,1,0,.06l-.17,1.75a.14.14,0,0,0,0,.09l.62.7a.14.14,0,0,0,.19,0,.1.1,0,0,0,.05-.08l.25-2.61a.15.15,0,0,0,0-.07l-.54-1.08a.11.11,0,0,0-.08-.07l-.89-.31a.14.14,0,0,0-.18.07A.14.14,0,0,0,332.22,242.25Z" transform="translate(-8.81 -12.49)"/><path id="REYE-2" data-name="REYE" class="cls-34" d="M335.82,243.82l-.34,3.57a.15.15,0,0,1,0,.07l-.82.61a.11.11,0,0,1-.14,0,.11.11,0,0,1,0-.07l.41-4.31a.1.1,0,0,1,.12-.08l.71.08a.15.15,0,0,1,.13.13Z" transform="translate(-8.81 -12.49)"/><path id="LEYE-2" data-name="LEYE" class="cls-35" d="M333.91,243.63l-.34,3.57a.24.24,0,0,0,0,.08l.69.75a.1.1,0,0,0,.14,0s0,0,0-.06l.41-4.31a.09.09,0,0,0-.09-.1h0l-.71-.09a.14.14,0,0,0-.16.1Z" transform="translate(-8.81 -12.49)"/><path id="REAR-2" data-name="REAR" class="cls-36" d="M337.76,242.81l-1,1.28a.13.13,0,0,0,0,.06l-.17,1.75a.1.1,0,0,1-.05.08l-.73.56a.15.15,0,0,1-.2,0,.17.17,0,0,1,0-.1c.09-.87.17-1.74.25-2.61l0-.06.74-1a.16.16,0,0,1,.08-.06l.94-.12a.12.12,0,0,1,.13.12A.08.08,0,0,1,337.76,242.81Z" transform="translate(-8.81 -12.49)"/><ellipse class="cls-26" cx="71.79" cy="244.62" rx="5" ry="4.67" transform="translate(-27.73 -6.12) rotate(-4.49)"/><ellipse class="cls-37" cx="71.79" cy="244.62" rx="5" ry="4.67" transform="translate(-27.73 -6.12) rotate(-4.49)"/><path id="LEAR-3" data-name="LEAR" class="cls-38" d="M68.79,242.65l1,1.29a.14.14,0,0,1,0,.06l.19,1.77a.13.13,0,0,0,0,.09l.75.57a.14.14,0,0,0,.19,0,.09.09,0,0,0,0-.09l-.28-2.65a.14.14,0,0,0,0-.06l-.74-1a.15.15,0,0,0-.09-.06l-.94-.13a.14.14,0,0,0-.16.11A.19.19,0,0,0,68.79,242.65Z" transform="translate(-8.81 -12.49)"/><path id="REYE-3" data-name="REYE" class="cls-39" d="M72.63,243.5l.38,3.61a.19.19,0,0,1,0,.08l-.68.77a.1.1,0,0,1-.14,0,.08.08,0,0,1,0-.06l-.46-4.36a.12.12,0,0,1,.1-.11l.71-.06a.13.13,0,0,1,.15.11Z" transform="translate(-8.81 -12.49)"/><path id="LEYE-3" data-name="LEYE" class="cls-40" d="M70.72,243.69l.38,3.62a.06.06,0,0,0,0,.06L72,248a.11.11,0,0,0,.15,0,.07.07,0,0,0,0-.07l-.45-4.36a.1.1,0,0,0-.11-.09h0l-.71.06a.13.13,0,0,0-.14.13A.08.08,0,0,1,70.72,243.69Z" transform="translate(-8.81 -12.49)"/><path id="REAR-3" data-name="REAR" class="cls-41" d="M74.33,242.1l-.69,1.47a.13.13,0,0,0,0,.06l.18,1.77a.14.14,0,0,1,0,.09l-.61.71a.17.17,0,0,1-.2,0,.19.19,0,0,1,0-.09q-.12-1.32-.27-2.64a.1.1,0,0,1,0-.07l.52-1.1a.18.18,0,0,1,.08-.07l.89-.31a.13.13,0,0,1,.16.09A.15.15,0,0,1,74.33,242.1Z" transform="translate(-8.81 -12.49)"/></g></svg>