<svg id="OBJECTS" xmlns="http://www.w3.org/2000/svg" xmlns:xlink="http://www.w3.org/1999/xlink" viewBox="0 0 406.44 274.04"><defs><style>.cls-1{opacity:0.31;}.cls-2{fill:#c5e1f9;}.cls-3{fill:none;}.cls-4{fill:#00aed6;}.cls-5{fill:#00b7d8;}.cls-6{fill:#fff;}.cls-7{fill:#4b3c51;}.cls-8{fill:#04a2bc;}.cls-9{fill:#3e3244;}.cls-10{fill:#e8a17e;}.cls-11{fill:#d88d6c;}.cls-12{fill:#161119;}.cls-13{fill:#f27b53;opacity:0.45;}.cls-14,.cls-20{fill:#26476d;}.cls-14{opacity:0.07;}.cls-15{fill:#ffce45;}.cls-16,.cls-19{fill:#345d95;}.cls-16{opacity:0.11;}.cls-17{opacity:0.38;}.cls-18{fill:#ffa748;}.cls-21{fill:#109499;}.cls-22{fill:url(#linear-gradient);}.cls-23{fill:url(#linear-gradient-2);}.cls-24{fill:url(#linear-gradient-3);}.cls-25{fill:url(#linear-gradient-4);}.cls-26{fill:url(#linear-gradient-5);}.cls-27{fill:url(#linear-gradient-6);}.cls-28{fill:url(#linear-gradient-7);}.cls-29{fill:url(#linear-gradient-8);}</style><linearGradient id="linear-gradient" x1="183.92" y1="29.21" x2="196.42" y2="7.55" gradientTransform="matrix(1, -0.02, -0.02, -1, -27.94, 257.88)" gradientUnits="userSpaceOnUse"><stop offset="0" stop-color="#fff" stop-opacity="0.2"/><stop offset="1" stop-color="#0f393a" stop-opacity="0.2"/></linearGradient><linearGradient id="linear-gradient-2" x1="185.48" y1="37.7" x2="185.48" y2="48.9" gradientTransform="matrix(1, -0.02, -0.02, -1, 1.04, 296.69)" gradientUnits="userSpaceOnUse"><stop offset="0" stop-color="#2d3535"/><stop offset="1" stop-color="#040f0f"/></linearGradient><linearGradient id="linear-gradient-3" x1="188.97" y1="33.27" x2="188.97" y2="45.48" gradientTransform="matrix(1, -0.02, -0.02, -1, 1.04, 296.69)" gradientUnits="userSpaceOnUse"><stop offset="0" stop-color="#2d3535"/><stop offset="1" stop-color="#192121"/></linearGradient><linearGradient id="linear-gradient-4" x1="191.37" y1="33.27" x2="191.37" y2="45.48" xlink:href="#linear-gradient-3"/><linearGradient id="linear-gradient-5" x1="194.86" y1="37.7" x2="194.86" y2="48.9" xlink:href="#linear-gradient-2"/><linearGradient id="linear-gradient-6" x1="190.17" y1="34.33" x2="190.17" y2="44.19" gradientTransform="matrix(1, -0.02, -0.02, -1, 1.04, 296.69)" gradientUnits="userSpaceOnUse"><stop offset="0" stop-color="#0fdfe7"/><stop offset="0.33" stop-color="#0fdde5" stop-opacity="0.84"/><stop offset="0.47" stop-color="#0ed6de" stop-opacity="0.76"/><stop offset="0.57" stop-color="#0ecad1" stop-opacity="0.71"/><stop offset="0.66" stop-color="#0cb9c0" stop-opacity="0.67"/><stop offset="0.74" stop-color="#0ba3a9" stop-opacity="0.63"/><stop offset="0.8" stop-color="#09878c" stop-opacity="0.6"/><stop offset="0.87" stop-color="#07666a" stop-opacity="0.57"/><stop offset="0.92" stop-color="#044043" stop-opacity="0.54"/><stop offset="0.97" stop-color="#021718" stop-opacity="0.51"/><stop offset="1" stop-opacity="0.5"/></linearGradient><linearGradient id="linear-gradient-7" x1="192.57" y1="38.65" x2="192.57" y2="44.41" xlink:href="#linear-gradient-6"/><linearGradient id="linear-gradient-8" x1="187.77" y1="38.65" x2="187.77" y2="44.41" xlink:href="#linear-gradient-6"/></defs><title>support</title><g class="cls-1"><path class="cls-2" d="M95.19,288.85C72.1,287.79,49.43,278,38.35,261.14c-10.25-15.58-12.16-39.71-7.57-57,3.85-14.56,14.85-27.16,27.39-37.82,25.34-21.55,58-37.18,79.41-61.49,11.9-13.51,19.82-29.17,31.27-42.95C191.1,35,228,16,267.14,14.87S346.44,32,362.72,61.6c14,25.47,10.36,56.33,27.6,80.39,7.93,11.06,19.74,19.84,28.45,30.49,15.49,19,20.17,43.71,12.42,65.69S403.38,278.9,378,287.91" transform="translate(-28.43 -14.81)"/></g><g class="cls-1"><path class="cls-2" d="M349,286.74c16.1-.7,31.91-7.16,39.64-18.26,7.15-10.27,8.48-26.17,5.28-37.6-2.68-9.6-10.35-17.9-19.1-24.93-17.68-14.2-40.45-24.5-55.39-40.52-8.3-8.91-18.23-29.47-26.21-38.55-15.52-17.66-33.95-29.26-61.14-32.15-35-3.73-58.32,22.73-69.67,42.24-9.77,16.78-7.22,37.13-19.25,53-5.53,7.29-13.77,13.08-19.84,20.1-10.81,12.48-14.07,28.81-8.66,43.29s19.39,26.84,37.08,32.78" transform="translate(-28.43 -14.81)"/></g><path class="cls-3" d="M105.54,273,105,277a4.39,4.39,0,0,0,3.15-1.24,1.21,1.21,0,0,0,.23-1.23C108.09,273.58,106.79,273.19,105.54,273Z" transform="translate(-28.43 -14.81)"/><path class="cls-4" d="M126.59,266.34c-1.2-3.41-4.74-4.72-7.91-5.2-6.93,10.84-15.59,13-20.33,13.29l1.38,8.12h15.62l.84-6.48c4-.08,7.46-1.43,9.33-3.75A6,6,0,0,0,126.59,266.34Zm-4.07,3.55c-.93,1.15-3,2.15-5.84,2.31l.94-7.3c2.32.28,4.73,1,5.32,2.72A2.19,2.19,0,0,1,122.52,269.89Z" transform="translate(-28.43 -14.81)"/><path class="cls-5" d="M118.68,261.14l-.56-.08.94-7.33a.72.72,0,0,0-.71-.81H95.66a.81.81,0,0,0-.8.94l3.49,20.57C103.09,274.14,111.75,272,118.68,261.14Z" transform="translate(-28.43 -14.81)"/><path class="cls-6" d="M108.27,249.87c-2.26-1.19-4.41-5.52-5.3-7.51a7.55,7.55,0,0,1-.16-6.35c.83-1.65,2.43-2.79,3.42-4.34a7.07,7.07,0,0,0,.87-5.49c-.68-2.6-2.81-4.68-3.3-7.32-.57-3.1,1.23-6.07,2-9.12a14.62,14.62,0,0,0-.41-8.56c2.2,1.31,3.52,3.67,4.73,5.92,1.11,2.06,2.25,4.26,2.09,6.59A15,15,0,0,1,111,217.9c-.93,2.5-1.56,5.23-.9,7.8,1,3.9,4.84,6.94,4.69,11a8.45,8.45,0,0,1-3.49,6,14.86,14.86,0,0,0-3.47,3.08c-.85,1.3-.87,3.33.44,4.15" transform="translate(-28.43 -14.81)"/><path class="cls-7" d="M247,132.1a52.26,52.26,0,0,0-3.86,12.4c-.68,4.16-.91,8.41-1.94,12.5a54.33,54.33,0,0,1-4.08,10.38,2.26,2.26,0,0,0-.31,1,2.19,2.19,0,0,0,1.11,1.56,30.07,30.07,0,0,0,28.73,3.42" transform="translate(-28.43 -14.81)"/><ellipse class="cls-5" cx="216.37" cy="135.39" rx="8.02" ry="9.97"/><ellipse class="cls-8" cx="220.14" cy="136.8" rx="8.02" ry="9.97"/><path class="cls-9" d="M266.61,173.35l-16.73-35.1c-1.86,6.17-3.71,12.34-5.46,18.53a35,35,0,0,0-1.34,6.28,17.81,17.81,0,0,0,.38,5.59,10.38,10.38,0,0,0,2.36,4.87,9.05,9.05,0,0,0,.74.65A30,30,0,0,0,266.61,173.35Z" transform="translate(-28.43 -14.81)"/><path class="cls-10" d="M263.09,172.15c.76,4.26,1.38,9.1-1.26,12.52a4.68,4.68,0,0,0-1.38,2.43c-.05,1.25,1.14,2.16,2.25,2.72a17.71,17.71,0,0,0,14,.72,2.27,2.27,0,0,0,1-.61c.57-.7.2-1.73-.15-2.56a30.88,30.88,0,0,1,.25-24.12" transform="translate(-28.43 -14.81)"/><path class="cls-11" d="M262.71,170.91a25.29,25.29,0,0,1,.9,8.94.39.39,0,0,0,.05.3c.1.1.27.06.4,0a12,12,0,0,0,2.84-1.3,12.66,12.66,0,0,0,3.92-4.41,13.06,13.06,0,0,0,1.35-6.78" transform="translate(-28.43 -14.81)"/><path class="cls-10" d="M252.86,132.68c-3,3.39-3.75,8.22-4.15,12.76a52.35,52.35,0,0,0,0,12,21.9,21.9,0,0,0,4.53,11,16.77,16.77,0,0,0,3.78,3.35,9.65,9.65,0,0,0,3.18,1.41c2.16.47,4.4-.15,6.51-.84,4.8-1.55,9.74-3.66,12.71-7.74,3.86-5.32,6.41-19.33,7.41-25.83" transform="translate(-28.43 -14.81)"/><path class="cls-11" d="M246.81,136.81a32.65,32.65,0,0,0,15.91,7.46,56.28,56.28,0,0,0,10.3.5,17.68,17.68,0,0,0,3.84-.38,7,7,0,0,0,4.33-2.91,4.74,4.74,0,0,0,.07-5.07" transform="translate(-28.43 -14.81)"/><path class="cls-7" d="M285.56,119.06c-8.56-4.14-21-3.28-27.18.28s-8.81,6.76-12.06,14.19c-.2.44-1.32,3.17-1.15,3.63a1.31,1.31,0,0,0,.83.87c7.7,2.93,14.46,3.46,22.68,3.87a28.82,28.82,0,0,0,8.19-.51c3.77,12.64,1.8,21.69-4.48,33.28,4.09,1.73,20,2.72,27.55-3.14a18.2,18.2,0,0,0,4.92-5.46c3-5.5,1.72-12.26.08-18.31a61,61,0,0,0-4.81-13.09c-3.39-6.3-8-12.77-14.57-15.61" transform="translate(-28.43 -14.81)"/><path class="cls-6" d="M255.58,160.51c.62,1.93,1.34,3.71,3,4.8a6.08,6.08,0,0,0,5.77.11c1.82-.85,3.55-3,4.83-4.55a52.41,52.41,0,0,1-13.65-.36" transform="translate(-28.43 -14.81)"/><path class="cls-9" d="M291.06,170.67a4,4,0,0,1-1.23-1.53,5.71,5.71,0,0,1,.31-3.78,20.19,20.19,0,0,0,1-6.44,9.5,9.5,0,0,0-2.22-6c-2.11-2.35-5.44-3.09-8.54-3.71l-2-.39c1.16,9-1,16.68-6,25.87,4.09,1.73,20,2.72,27.55-3.14l.8-.67a11.24,11.24,0,0,1-1.43.72A8.59,8.59,0,0,1,291.06,170.67Z" transform="translate(-28.43 -14.81)"/><path class="cls-12" d="M263.18,149.12a3.76,3.76,0,0,0-3.78,0l-.42-.61a4.52,4.52,0,0,1,4.54,0Z" transform="translate(-28.43 -14.81)"/><polygon class="cls-12" points="250.06 134.1 248.15 134.07 248.15 133.34 249.97 133.34 250.06 134.1"/><polyline class="cls-11" points="232.29 135.63 229.98 142.72 233.62 143.01"/><path class="cls-9" d="M268,144.8a3.37,3.37,0,0,1,.46-.25l.28-.12-.1,0,.72-.27.93-.24.61-.1h-.12a9.53,9.53,0,0,1,1.77-.05l.55.05h-.12a8.92,8.92,0,0,1,1.75.42l.52.2-.11,0a10.29,10.29,0,0,1,1.81,1,.45.45,0,0,0,.34,0,.43.43,0,0,0,.26-.2.45.45,0,0,0,.05-.34.57.57,0,0,0-.2-.26,10.4,10.4,0,0,0-2.93-1.4,9,9,0,0,0-2.63-.36,9.07,9.07,0,0,0-3.68.81,5.59,5.59,0,0,0-.6.3h0a.42.42,0,0,0-.16.6.47.47,0,0,0,.26.2.45.45,0,0,0,.34,0Z" transform="translate(-28.43 -14.81)"/><path class="cls-9" d="M256.15,144.85a4.12,4.12,0,0,0-.41-.32l-.25-.18.09.06c-.22-.14-.44-.27-.67-.39s-.57-.29-.86-.41-.39-.15-.58-.21l.11,0a7.86,7.86,0,0,0-1.73-.38l-.54-.05h.11a8.24,8.24,0,0,0-1.79.1l-.55.1.11,0c-.67.15.22.6-1,.28a2.64,2.64,0,0,1,1.88-1.3,8.79,8.79,0,0,1,2.66.13,9.45,9.45,0,0,1,2.07.67,8.44,8.44,0,0,1,1.4.8,4.91,4.91,0,0,1,.53.4h0a.46.46,0,0,1,.15.3.41.41,0,0,1-.1.32.44.44,0,0,1-.3.15.42.42,0,0,1-.32-.1Z" transform="translate(-28.43 -14.81)"/><path class="cls-9" d="M268.22,149.68l0-.06,0,0a1.68,1.68,0,0,1,.18-.21c.1-.11.2-.21.31-.31l.23-.2-.05,0a4.17,4.17,0,0,1,.61-.38l.2-.09-.06,0a3.09,3.09,0,0,1,.59-.18l.18,0h-.07a2.94,2.94,0,0,1,.59,0l.18,0h-.06a3.63,3.63,0,0,1,.65.16l.19.08,0,0a4.33,4.33,0,0,1,.81.46l.24.17,0,0,.2.17a.29.29,0,0,0,.18.07.31.31,0,0,0,.18-.07.29.29,0,0,0,.07-.18.24.24,0,0,0-.07-.18,6.73,6.73,0,0,0-.93-.65,4.52,4.52,0,0,0-.88-.36,3.69,3.69,0,0,0-.81-.12,3.65,3.65,0,0,0-.74.08,3.11,3.11,0,0,0-.65.22,3.53,3.53,0,0,0-.5.28,3.22,3.22,0,0,0-.46.34,2.94,2.94,0,0,0-.31.3,2.29,2.29,0,0,0-.21.23,1,1,0,0,0-.12.16h0a.28.28,0,0,0,0,.2.24.24,0,0,0,.11.15.25.25,0,0,0,.19,0,.28.28,0,0,0,.15-.11Z" transform="translate(-28.43 -14.81)"/><path class="cls-9" d="M250.06,149l0-.06,0,.06.18-.22c.1-.11.21-.21.31-.31l.24-.19,0,0a3.85,3.85,0,0,1,.6-.39l.2-.09-.06,0a3.12,3.12,0,0,1,.59-.19l.18,0h-.06a2.9,2.9,0,0,1,.59,0h.11a3.63,3.63,0,0,1,.65.16l.2.08-.06,0a4.36,4.36,0,0,1,.82.45l.24.18-.05,0,.2.16a.26.26,0,0,0,.17.07.23.23,0,0,0,.18-.07.21.21,0,0,0,.07-.18.22.22,0,0,0-.07-.17,5.36,5.36,0,0,0-.93-.65,3.89,3.89,0,0,0-.87-.36,3.24,3.24,0,0,0-.81-.12,3,3,0,0,0-.74.07,3.55,3.55,0,0,0-.65.22,3.15,3.15,0,0,0-.51.28,5.07,5.07,0,0,0-.46.35c-.11.09-.21.19-.31.29a2.2,2.2,0,0,0-.2.23,1.83,1.83,0,0,0-.13.16h0a.25.25,0,0,0,0,.19.26.26,0,0,0,.12.15.26.26,0,0,0,.19,0,.29.29,0,0,0,.15-.12Z" transform="translate(-28.43 -14.81)"/><circle class="cls-13" cx="245.33" cy="141.34" r="3.13"/><circle class="cls-13" cx="222.78" cy="140.12" r="2.64"/><path class="cls-12" d="M252.52,156a6.93,6.93,0,1,1,6.93-6.92A6.92,6.92,0,0,1,252.52,156Zm0-13a6.13,6.13,0,1,0,6.13,6.13A6.14,6.14,0,0,0,252.52,142.93Z" transform="translate(-28.43 -14.81)"/><path class="cls-12" d="M269.94,156a6.93,6.93,0,1,1,6.93-6.92A6.92,6.92,0,0,1,269.94,156Zm0-13a6.13,6.13,0,1,0,6.13,6.13A6.14,6.14,0,0,0,269.94,142.93Z" transform="translate(-28.43 -14.81)"/><ellipse class="cls-12" cx="262.8" cy="169.26" rx="2.41" ry="1.88" transform="translate(-43.47 11.22) rotate(-5.51)"/><path class="cls-12" d="M267.16,169.63a23.44,23.44,0,0,1-3.26.1l0-1c12.55.5,22.21-9.64,22.3-9.74l.76.71C286.91,159.75,278.56,168.53,267.16,169.63Z" transform="translate(-28.43 -14.81)"/><path class="cls-5" d="M245.43,140.92c1-7,4.69-14.79,10.73-18.77,5.41-3.56,12.65-3.78,18.61-1.5,5.13,2,8.54,6.36,10.21,11.48,1.43,4.36,1.62,8.84,1.95,13.37.11,1.49,2.45,1.5,2.34,0-.31-4.31-.49-8.61-1.67-12.8-1.53-5.45-4.68-10.46-9.78-13.2a23.7,23.7,0,0,0-20.37-.74c-5.1,2.34-8.82,6.9-11.19,11.88a34.54,34.54,0,0,0-3.09,9.65c-.21,1.48,2.05,2.12,2.26.63Z" transform="translate(-28.43 -14.81)"/><ellipse class="cls-5" cx="258.41" cy="138.2" rx="8.02" ry="9.97"/><ellipse class="cls-8" cx="259.67" cy="138.2" rx="7.62" ry="9.47"/><rect class="cls-14" x="272.84" y="61.09" width="48.82" height="32.71" rx="4.76"/><rect class="cls-6" x="271.69" y="59.99" width="48.82" height="32.71" rx="4.76"/><path class="cls-15" d="M327.84,80.79a5.77,5.77,0,0,1,2.35,2,4.89,4.89,0,0,1,.85,2.8,5,5,0,0,1-.39,2,5.57,5.57,0,0,1-1,1.51,16.43,16.43,0,0,1-1.49,1.41,12,12,0,0,0-1.86,1.91,3.52,3.52,0,0,0-.61,2.09v.41a.74.74,0,0,1-.23.55.76.76,0,0,1-.55.23h-1.07a.79.79,0,0,1-.79-.78v-.61a4.87,4.87,0,0,1,.41-2,5.41,5.41,0,0,1,1-1.49c.38-.41.89-.9,1.52-1.48a11.86,11.86,0,0,0,1.82-1.85,3.05,3.05,0,0,0,.59-1.9,2.53,2.53,0,0,0-1.16-2.2,4.66,4.66,0,0,0-2.78-.82,4.21,4.21,0,0,0-2.62.79,4.14,4.14,0,0,0-1.45,2.41.8.8,0,0,1-.27.46.74.74,0,0,1-.48.17h-1.25a.67.67,0,0,1-.46-.18.51.51,0,0,1-.18-.45,5.91,5.91,0,0,1,.86-2.67,5.8,5.8,0,0,1,2.26-2.15,7.22,7.22,0,0,1,3.59-.84A7.72,7.72,0,0,1,327.84,80.79Zm-2,19.66a.73.73,0,0,1-.55.23h-1.65a.75.75,0,0,1-.56-.23.76.76,0,0,1-.23-.55V98.25a.79.79,0,0,1,.79-.79h1.65a.76.76,0,0,1,.55.23.75.75,0,0,1,.23.56V99.9A.73.73,0,0,1,325.79,100.45Z" transform="translate(-28.43 -14.81)"/><path class="cls-14" d="M245.94,45.33H207a5,5,0,0,0-5,5v22.8a5,5,0,0,0,5,5h27.6l10.46,7.42V78h.85a5,5,0,0,0,5-5V50.28A5,5,0,0,0,245.94,45.33Z" transform="translate(-28.43 -14.81)"/><path class="cls-6" d="M244.77,44.26H205.86a5,5,0,0,0-5,5V72a5,5,0,0,0,5,5h27.6l10.46,7.42V77h.85a5,5,0,0,0,5-5V49.22A5,5,0,0,0,244.77,44.26Z" transform="translate(-28.43 -14.81)"/><path class="cls-15" d="M206,48" transform="translate(-28.43 -14.81)"/><path class="cls-15" d="M244.61,52.71H206a.39.39,0,0,0,0,.78h38.59a.39.39,0,0,0,0-.78Z" transform="translate(-28.43 -14.81)"/><path class="cls-15" d="M244.61,57.8H206a.39.39,0,0,0,0,.78h38.59a.39.39,0,0,0,0-.78Z" transform="translate(-28.43 -14.81)"/><path class="cls-15" d="M233.08,62.88H206a.39.39,0,0,0,0,.78h27.06a.39.39,0,0,0,0-.78Z" transform="translate(-28.43 -14.81)"/><path class="cls-15" d="M233.08,68H206a.39.39,0,0,0,0,.78h27.06a.39.39,0,0,0,0-.78Z" transform="translate(-28.43 -14.81)"/><path class="cls-14" d="M225.1,86H199.82a3.22,3.22,0,0,0-3.22,3.22V104a3.22,3.22,0,0,0,3.22,3.22h17.93l6.8,4.82v-4.82h.55a3.22,3.22,0,0,0,3.22-3.22V89.19A3.22,3.22,0,0,0,225.1,86Z" transform="translate(-28.43 -14.81)"/><path class="cls-6" d="M224.34,85.28H199.06a3.22,3.22,0,0,0-3.22,3.22v14.81a3.22,3.22,0,0,0,3.22,3.22H217l6.8,4.82v-4.82h.55a3.22,3.22,0,0,0,3.22-3.22V88.5A3.22,3.22,0,0,0,224.34,85.28Z" transform="translate(-28.43 -14.81)"/><path class="cls-15" d="M199.17,87.72" transform="translate(-28.43 -14.81)"/><path class="cls-15" d="M224.24,90.77H199.17a.25.25,0,0,0,0,.5h25.07a.25.25,0,0,0,0-.5Z" transform="translate(-28.43 -14.81)"/><path class="cls-15" d="M224.24,94.07H199.17a.26.26,0,0,0,0,.51h25.07a.26.26,0,0,0,0-.51Z" transform="translate(-28.43 -14.81)"/><path class="cls-15" d="M216.75,97.38H199.17a.25.25,0,0,0,0,.5h17.58a.25.25,0,0,0,0-.5Z" transform="translate(-28.43 -14.81)"/><path class="cls-15" d="M216.75,100.68H199.17a.26.26,0,0,0,0,.51h17.58a.26.26,0,0,0,0-.51Z" transform="translate(-28.43 -14.81)"/><rect class="cls-14" x="102.94" y="107.73" width="48.82" height="32.71" rx="4.76"/><rect class="cls-6" x="101.49" y="106.43" width="48.82" height="32.71" rx="4.76"/><path class="cls-15" d="M149.87,129c.35,3.7,4.3,3.12,4.3,3.12,2.41.35,2.05,5.63,2.05,5.63s-.25,5.29-2.69,5.36c0,0-3.86-1-4.64,2.6s1.42,5.5,5,5.25c0,0,5-.48,5.7-13.12.4-12.82-4.14-13.48-4.14-13.48C151.92,123.67,149.52,125.27,149.87,129Z" transform="translate(-28.43 -14.81)"/><path class="cls-5" d="M307.38,282.26c11.71-5.72,19.81-16.64,26.06-27.86,11.34-20.36,18.18-43.91,14.38-66.78-.74-4.48-2.37-9.5-6.64-11.34a9.67,9.67,0,0,0-6.46-.23c-4.17,1.2-7.4,4.57-9.35,8.36s-2.77,8-3.55,12.2c-5.51,29.57-9.4,59.67-19.95,87.9" transform="translate(-28.43 -14.81)"/><path class="cls-16" d="M305.35,282.74c9.06-4.21,19.42-17.12,24.46-25.74,9.13-15.63,15.89-31.87,13.55-49.8-.46-3.52-1.58-7.47-4.78-9a7.24,7.24,0,0,0-4.92-.33,12.31,12.31,0,0,0-7.32,6.32,35.13,35.13,0,0,0-3,9.44c-4.91,23-8.6,46.37-17.32,68.18" transform="translate(-28.43 -14.81)"/><path class="cls-6" d="M337.18,188.6c-1,7.08-2,14.15-3.2,21.19s-2.62,13.93-4.41,20.79a141,141,0,0,1-6.13,18.63,134.17,134.17,0,0,1-8.73,17.41,120.9,120.9,0,0,1-11,15.65L302.21,284c-.1.12.08.3.19.18a118.9,118.9,0,0,0,11.23-15.31,132.66,132.66,0,0,0,15.5-35.67c1.9-6.9,3.4-13.9,4.67-20.93s2.32-14.12,3.3-21.2c.11-.84.23-1.67.34-2.51,0-.16-.24-.16-.26,0Z" transform="translate(-28.43 -14.81)"/><path class="cls-5" d="M312,281a169.33,169.33,0,0,0,27.29,4c15,.87,33.35.32,45.25-8.83,3.86-3,7.23-7.83,5.66-12.43-1-2.93-3.84-4.94-6.83-5.72a25,25,0,0,0-9.22-.2A139,139,0,0,0,312,281" transform="translate(-28.43 -14.81)"/><path class="cls-16" d="M315.33,280.27a139.42,139.42,0,0,0,21.17,2.91c11.63.61,25.89.19,35.13-6.55,3-2.18,5.63-5.76,4.41-9.14-.77-2.14-3-3.61-5.29-4.19a20.48,20.48,0,0,0-7.16-.12,112,112,0,0,0-48.26,17.09" transform="translate(-28.43 -14.81)"/><path class="cls-6" d="M377.85,267.93l-12.5,2.81q-6.39,1.42-12.8,2.8c-4.3.91-8.61,1.8-12.92,2.64s-8.59,1.64-12.9,2.37-8.51,1.39-12.78,2l-1.55.21c-.19,0-.18.31,0,.29,4.25-.56,8.49-1.21,12.72-1.91s8.58-1.5,12.86-2.33,8.63-1.7,12.93-2.61,8.59-1.84,12.88-2.8,8.41-1.88,12.61-2.83l1.53-.34c.18,0,.09-.32-.09-.28Z" transform="translate(-28.43 -14.81)"/><path class="cls-5" d="M308.36,279.77c17-.89,36-11,49.62-21.2,9-6.73,17.83-13.87,24.46-22.92a64.47,64.47,0,0,0,11.08-25c1.21-5.9,1-13.22-4.09-16.44a11,11,0,0,0-9.39-.66,23.78,23.78,0,0,0-8.06,5.37c-6.77,6.33-12,14.13-17.23,21.75C341,240.52,324,261.38,308.36,279.77" transform="translate(-28.43 -14.81)"/><path class="cls-16" d="M313,277.37c13.14-.65,27.8-8.09,38.33-15.61,6.92-5,13.77-10.22,18.88-16.88a46.38,46.38,0,0,0,8.56-18.4c.94-4.35.77-9.74-3.15-12.11a8.83,8.83,0,0,0-7.26-.48,18.46,18.46,0,0,0-6.22,4c-5.23,4.66-9.23,10.4-13.31,16-10.6,14.62-23.76,30-35.83,43.52" transform="translate(-28.43 -14.81)"/><path class="cls-6" d="M382.82,208.45l-15,18.27c-4.42,5.41-8.81,10.85-13.33,16.18-4.16,4.9-8.44,9.71-13,14.25a117.55,117.55,0,0,1-14.48,12.45,77.92,77.92,0,0,1-16.55,9.2c-.73.29-1.45.57-2.19.83-.17.06-.1.35.08.28a75.61,75.61,0,0,0,16.77-8.63,111.53,111.53,0,0,0,14.68-12.06c4.66-4.49,9-9.27,13.23-14.18,4.45-5.17,8.74-10.47,13.06-15.75l15-18.33,1.88-2.3c.12-.15-.08-.35-.2-.21Z" transform="translate(-28.43 -14.81)"/><g class="cls-17"><path class="cls-5" d="M363.24,262.68a32.3,32.3,0,0,0,9.35-5.08c1.52-1.11,3-2.27,4.5-3.42s3.25-2.52,4.86-3.8q4.59-3.67,9-7.58t8.6-8.06q4.2-4.14,8.17-8.5l1-1.06c.22-.25-.15-.62-.37-.37q-3.91,4.35-8,8.49t-8.48,8.06c-2.89,2.61-5.86,5.15-8.88,7.61s-6.25,4.95-9.43,7.35a37.37,37.37,0,0,1-9.11,5.43c-.41.16-.81.29-1.23.42s-.18.61.14.51Z" transform="translate(-28.43 -14.81)"/><path class="cls-5" d="M407.17,226.17a7.11,7.11,0,0,1,3.52-5.49,2.23,2.23,0,0,1,2.55-.07,1.72,1.72,0,0,1,.29,1.86,4.18,4.18,0,0,1-1.27,1.53,15.53,15.53,0,0,1-5.2,2.84" transform="translate(-28.43 -14.81)"/><path class="cls-5" d="M405,228.85a4.19,4.19,0,0,1-1.58-2.89,5.42,5.42,0,0,1,0-2.37,2.61,2.61,0,0,1,1.46-1.78.75.75,0,0,1,.36-.05.55.55,0,0,1,.31.16,2.18,2.18,0,0,1,.72,1.54,5.13,5.13,0,0,1-.21,1.74,18.54,18.54,0,0,1-1.38,3.75" transform="translate(-28.43 -14.81)"/><path class="cls-5" d="M400.12,233.5a2.61,2.61,0,0,1-1-.73,5.38,5.38,0,0,1-1.76-2.81,4,4,0,0,1,.19-1.68,3.31,3.31,0,0,1,1.46-2.15,1.21,1.21,0,0,1,.85-.14,1.16,1.16,0,0,1,.76.72,2.9,2.9,0,0,1,.16,1.06,18.75,18.75,0,0,1-.67,5.73" transform="translate(-28.43 -14.81)"/><path class="cls-5" d="M394.69,239.11c-.11.09-.26,0-.37-.07a8,8,0,0,1-2.39-2.81,5.35,5.35,0,0,1-.44-3.62,2.05,2.05,0,0,1,.9-1.37,1.71,1.71,0,0,1,2,.45,3.52,3.52,0,0,1,.8,2,15.9,15.9,0,0,1-.61,5.76" transform="translate(-28.43 -14.81)"/><path class="cls-5" d="M388.59,244.76a3.36,3.36,0,0,1-1.35-1.08,9.82,9.82,0,0,1-2.15-3.67,4.54,4.54,0,0,1,.68-4.06,1.7,1.7,0,0,1,1.47-.74,1.73,1.73,0,0,1,1.05.71c1.11,1.38,1.15,3.32,1,5.09a30.22,30.22,0,0,1-.51,3.28" transform="translate(-28.43 -14.81)"/><path class="cls-5" d="M380.74,251a10.44,10.44,0,0,1-3.93-7.84c0-1.16.29-2.54,1.38-3a2.1,2.1,0,0,1,2.09.45,4.05,4.05,0,0,1,1.14,1.92c.8,2.53.31,5.26-.2,7.87" transform="translate(-28.43 -14.81)"/><path class="cls-5" d="M400.36,233.81a10.38,10.38,0,0,1,5.62-.28c.45.07,1,.19,1.17.61a1.08,1.08,0,0,1-.29,1.14,2.88,2.88,0,0,1-1.92.89,5.21,5.21,0,0,1-2.13-.37,6.56,6.56,0,0,1-2.78-1.91" transform="translate(-28.43 -14.81)"/><path class="cls-5" d="M405.12,228.68a10.29,10.29,0,0,1,5.62-.27c.46.07,1,.19,1.18.61a1.12,1.12,0,0,1-.29,1.14,2.83,2.83,0,0,1-1.93.88,5,5,0,0,1-2.12-.37,6.42,6.42,0,0,1-2.79-1.9" transform="translate(-28.43 -14.81)"/><path class="cls-5" d="M394.74,239a8,8,0,0,1,7,.07,1.91,1.91,0,0,1,1.11,1.1,1.37,1.37,0,0,1-.41,1.28,2.61,2.61,0,0,1-1.25.6,5.53,5.53,0,0,1-3.16-.36,10.78,10.78,0,0,1-2.74-1.69,1.94,1.94,0,0,1-.77-1" transform="translate(-28.43 -14.81)"/><path class="cls-5" d="M388.66,244.4c2.12-.74,4.46-.31,6.63.26a3.28,3.28,0,0,1,2.18,1.29,2.14,2.14,0,0,1-1,2.74,3.92,3.92,0,0,1-3.15.05,9,9,0,0,1-4.57-3.9" transform="translate(-28.43 -14.81)"/><path class="cls-5" d="M381.13,250.51a7.79,7.79,0,0,1,5,.25,23.93,23.93,0,0,1,4.52,2.41c.7.45,1.48,1,1.54,1.84a1.7,1.7,0,0,1-.74,1.45,3.39,3.39,0,0,1-1.58.57,8.58,8.58,0,0,1-7.67-3.48A5,5,0,0,1,381,250.1" transform="translate(-28.43 -14.81)"/><path class="cls-5" d="M371.85,258.12c-.09.15-.32,0-.44-.07a9.53,9.53,0,0,1-2.82-8.26,4.26,4.26,0,0,1,.55-1.63,4.53,4.53,0,0,1,2.12-1.57.86.86,0,0,1,1.25.35,7.63,7.63,0,0,1,1.32,5.5,13.84,13.84,0,0,1-2,5.38" transform="translate(-28.43 -14.81)"/><path class="cls-5" d="M371.31,258.09a7.6,7.6,0,0,1,4.06-.44,19.69,19.69,0,0,1,4,1.11,6.56,6.56,0,0,1,2.63,1.47,2.31,2.31,0,0,1,.42,2.78,3.05,3.05,0,0,1-2.68.95,9.9,9.9,0,0,1-5.5-1.65,6.42,6.42,0,0,1-2.83-4.85" transform="translate(-28.43 -14.81)"/></g><g class="cls-17"><path class="cls-5" d="M346.75,234.71a32.33,32.33,0,0,0,4.68-9.56c.59-1.78,1.13-3.59,1.69-5.39q.9-3,1.76-5.92,1.61-5.64,2.93-11.37t2.34-11.55q1-5.8,1.74-11.66c.06-.47.11-.94.17-1.42s-.48-.42-.52-.09q-.68,5.82-1.65,11.59t-2.24,11.48c-.85,3.8-1.8,7.59-2.84,11.34s-2.23,7.66-3.43,11.45a37.31,37.31,0,0,1-4.28,9.71c-.24.36-.5.71-.76,1.05s.2.61.41.34Z" transform="translate(-28.43 -14.81)"/><path class="cls-5" d="M361.42,179.51a7.12,7.12,0,0,1-.3-6.52c.39-.82,1.13-1.65,2-1.53a1.71,1.71,0,0,1,1.32,1.35,4.17,4.17,0,0,1-.15,2,15.63,15.63,0,0,1-2.59,5.33" transform="translate(-28.43 -14.81)"/><path class="cls-5" d="M361.22,182.94a4.21,4.21,0,0,1-3-1.45,5.24,5.24,0,0,1-1.38-1.92,2.56,2.56,0,0,1,.16-2.29.78.78,0,0,1,.25-.26.69.69,0,0,1,.35,0,2.23,2.23,0,0,1,1.49.84,5.4,5.4,0,0,1,.83,1.53,18,18,0,0,1,1,3.87" transform="translate(-28.43 -14.81)"/><path class="cls-5" d="M359.92,189.56a2.56,2.56,0,0,1-1.23,0,5.36,5.36,0,0,1-3.06-1.27,4.14,4.14,0,0,1-.82-1.48,3.36,3.36,0,0,1-.06-2.6,1.27,1.27,0,0,1,.62-.61,1.19,1.19,0,0,1,1,.15,2.79,2.79,0,0,1,.75.78,18.56,18.56,0,0,1,2.77,5.05" transform="translate(-28.43 -14.81)"/><path class="cls-5" d="M358.74,197.28c0,.14-.21.16-.34.16a8.09,8.09,0,0,1-3.58-.91,5.31,5.31,0,0,1-2.45-2.69,2,2,0,0,1-.05-1.64,1.71,1.71,0,0,1,1.86-.78,3.59,3.59,0,0,1,1.8,1.15,16.15,16.15,0,0,1,2.84,5.06" transform="translate(-28.43 -14.81)"/><path class="cls-5" d="M357,205.42a3.2,3.2,0,0,1-1.73-.1,9.79,9.79,0,0,1-3.87-1.75,4.54,4.54,0,0,1-1.8-3.7,1.69,1.69,0,0,1,.77-1.45,1.74,1.74,0,0,1,1.27,0c1.7.49,2.86,2.05,3.74,3.59a30.58,30.58,0,0,1,1.48,3" transform="translate(-28.43 -14.81)"/><path class="cls-5" d="M354.26,215.06a10.43,10.43,0,0,1-7.74-4.11c-.7-.94-1.23-2.25-.6-3.22a2.12,2.12,0,0,1,2-.84,4,4,0,0,1,2,.9c2.12,1.6,3.3,4.12,4.4,6.53" transform="translate(-28.43 -14.81)"/><path class="cls-5" d="M360.29,189.68a10.27,10.27,0,0,1,4.43-3.48A1.42,1.42,0,0,1,366,186a1.1,1.1,0,0,1,.42,1.09,2.86,2.86,0,0,1-1.06,1.84,5.13,5.13,0,0,1-1.94.93,6.57,6.57,0,0,1-3.38.06" transform="translate(-28.43 -14.81)"/><path class="cls-5" d="M361.21,182.74a10.27,10.27,0,0,1,4.43-3.48,1.42,1.42,0,0,1,1.31-.18,1.1,1.1,0,0,1,.42,1.09,2.86,2.86,0,0,1-1.06,1.84,5.13,5.13,0,0,1-1.94.93A6.57,6.57,0,0,1,361,183" transform="translate(-28.43 -14.81)"/><path class="cls-5" d="M358.73,197.17a8,8,0,0,1,5.76-4,1.91,1.91,0,0,1,1.54.26,1.35,1.35,0,0,1,.4,1.28,2.47,2.47,0,0,1-.67,1.21,5.48,5.48,0,0,1-2.78,1.54,10.82,10.82,0,0,1-3.21.21,2,2,0,0,1-1.21-.38" transform="translate(-28.43 -14.81)"/><path class="cls-5" d="M356.89,205.08c1.3-1.83,3.45-2.83,5.55-3.62a3.31,3.31,0,0,1,2.53-.21,2.16,2.16,0,0,1,.77,2.82,4,4,0,0,1-2.55,1.87,9,9,0,0,1-6-.54" transform="translate(-28.43 -14.81)"/><path class="cls-5" d="M354.28,214.43a7.83,7.83,0,0,1,4.26-2.71,23.42,23.42,0,0,1,5.08-.66,2.78,2.78,0,0,1,2.32.6,1.7,1.7,0,0,1,.24,1.62,3.39,3.39,0,0,1-1,1.38,8.59,8.59,0,0,1-8.27,1.6,5,5,0,0,1-3-2.09" transform="translate(-28.43 -14.81)"/><path class="cls-5" d="M351.13,226c0,.17-.24.22-.41.19a9.5,9.5,0,0,1-7.07-5.1,4.22,4.22,0,0,1-.5-1.65A4.49,4.49,0,0,1,344,217a.86.86,0,0,1,1.22-.44,7.6,7.6,0,0,1,4.26,3.72,13.75,13.75,0,0,1,1.46,5.56" transform="translate(-28.43 -14.81)"/><path class="cls-5" d="M350.67,226.29a7.52,7.52,0,0,1,3.05-2.7,20,20,0,0,1,3.88-1.4,6.43,6.43,0,0,1,3-.32,2.31,2.31,0,0,1,1.95,2,3.08,3.08,0,0,1-1.63,2.33,10,10,0,0,1-5.44,1.84,6.47,6.47,0,0,1-5.12-2.32" transform="translate(-28.43 -14.81)"/></g><g class="cls-17"><path class="cls-5" d="M238.25,241.14a32,32,0,0,0-3.66-10c-.88-1.67-1.81-3.3-2.73-5s-2-3.59-3.05-5.36c-2-3.39-4-6.71-6.18-10s-4.4-6.51-6.72-9.68-4.73-6.28-7.22-9.32l-.91-1.1c-.22-.26-.64.05-.42.31q3.72,4.5,7.22,9.2t6.74,9.56q3.24,4.88,6.23,9.9t5.89,10.4a36.89,36.89,0,0,1,4.05,9.81c.09.42.17.85.24,1.27a.26.26,0,0,0,.52-.06Z" transform="translate(-28.43 -14.81)"/><path class="cls-5" d="M208.54,192.35a7.11,7.11,0,0,1-4.92-4.28,2.23,2.23,0,0,1,.31-2.53,1.69,1.69,0,0,1,1.88,0,4,4,0,0,1,1.33,1.48,15.5,15.5,0,0,1,2.05,5.55" transform="translate(-28.43 -14.81)"/><path class="cls-5" d="M210.88,194.88a4.31,4.31,0,0,1-3.09,1.14,5.34,5.34,0,0,1-2.35-.34,2.56,2.56,0,0,1-1.54-1.7.73.73,0,0,1,0-.36.71.71,0,0,1,.21-.28,2.27,2.27,0,0,1,1.63-.5,5.51,5.51,0,0,1,1.69.46,19,19,0,0,1,3.51,1.92" transform="translate(-28.43 -14.81)"/><path class="cls-5" d="M214.77,200.4a2.78,2.78,0,0,1-.87.87,5.36,5.36,0,0,1-3,1.33,4.2,4.2,0,0,1-1.63-.43,3.37,3.37,0,0,1-1.92-1.76,1.21,1.21,0,0,1,0-.86,1.16,1.16,0,0,1,.82-.65,3,3,0,0,1,1.08,0,18.93,18.93,0,0,1,5.57,1.5" transform="translate(-28.43 -14.81)"/><path class="cls-5" d="M219.52,206.59c.08.12,0,.26-.12.35a8.09,8.09,0,0,1-3.13,2,5.38,5.38,0,0,1-3.65-.09,2.06,2.06,0,0,1-1.21-1.1,1.7,1.7,0,0,1,.72-1.88,3.64,3.64,0,0,1,2.08-.51,16.11,16.11,0,0,1,5.61,1.45" transform="translate(-28.43 -14.81)"/><path class="cls-5" d="M224.22,213.45a3.26,3.26,0,0,1-1.26,1.18,10,10,0,0,1-4,1.58,4.53,4.53,0,0,1-3.92-1.26,1.45,1.45,0,0,1,.34-2.5c1.53-.9,3.46-.65,5.18-.22a28.47,28.47,0,0,1,3.17,1" transform="translate(-28.43 -14.81)"/><path class="cls-5" d="M229.26,222.12a10.42,10.42,0,0,1-8.33,2.75c-1.15-.14-2.47-.66-2.73-1.79a2.11,2.11,0,0,1,.75-2,4.05,4.05,0,0,1,2.07-.85c2.61-.43,5.25.47,7.75,1.34" transform="translate(-28.43 -14.81)"/><path class="cls-5" d="M215.1,200.21a10.37,10.37,0,0,1,.55-5.6c.14-.44.34-1,.78-1.08a1.11,1.11,0,0,1,1.08.46,2.83,2.83,0,0,1,.6,2,5.23,5.23,0,0,1-.68,2,6.58,6.58,0,0,1-2.29,2.48" transform="translate(-28.43 -14.81)"/><path class="cls-5" d="M210.73,194.75a10.28,10.28,0,0,1,.55-5.6c.13-.45.33-1,.77-1.08a1.12,1.12,0,0,1,1.09.45,2.85,2.85,0,0,1,.59,2,5,5,0,0,1-.67,2,6.46,6.46,0,0,1-2.3,2.48" transform="translate(-28.43 -14.81)"/><path class="cls-5" d="M219.43,206.52a8.11,8.11,0,0,1,1.09-6.94,2,2,0,0,1,1.26-.93,1.38,1.38,0,0,1,1.2.6,2.54,2.54,0,0,1,.41,1.32,5.6,5.6,0,0,1-.81,3.08,10.87,10.87,0,0,1-2.08,2.46,1.9,1.9,0,0,1-1.1.61" transform="translate(-28.43 -14.81)"/><path class="cls-5" d="M223.87,213.32c-.42-2.2.35-4.45,1.23-6.51a3.25,3.25,0,0,1,1.6-2,2.14,2.14,0,0,1,2.56,1.39,4,4,0,0,1-.41,3.13,9,9,0,0,1-4.53,3.95" transform="translate(-28.43 -14.81)"/><path class="cls-5" d="M228.82,221.67a7.89,7.89,0,0,1,1-4.95,23.48,23.48,0,0,1,3-4.12c.54-.63,1.21-1.32,2-1.26a1.69,1.69,0,0,1,1.33.94,3.37,3.37,0,0,1,.33,1.66A8.59,8.59,0,0,1,232,221a5.08,5.08,0,0,1-3.6.73" transform="translate(-28.43 -14.81)"/><path class="cls-5" d="M235,232c.13.11,0,.32-.14.42a9.51,9.51,0,0,1-8.58,1.59,4.29,4.29,0,0,1-1.53-.79,4.48,4.48,0,0,1-1.25-2.32,1.09,1.09,0,0,1,0-.62,1.08,1.08,0,0,1,.57-.56,7.57,7.57,0,0,1,5.63-.51,13.76,13.76,0,0,1,5,2.8" transform="translate(-28.43 -14.81)"/><path class="cls-5" d="M234.89,232.48a7.52,7.52,0,0,1,.16-4.07,19.5,19.5,0,0,1,1.67-3.77,6.59,6.59,0,0,1,1.84-2.39,2.32,2.32,0,0,1,2.81,0,3.06,3.06,0,0,1,.55,2.8,9.82,9.82,0,0,1-2.43,5.19,6.51,6.51,0,0,1-5.22,2.1" transform="translate(-28.43 -14.81)"/></g><path class="cls-15" d="M276.74,185.14c10.5.44,21.86,3.61,29.55,10.78a5.55,5.55,0,0,1,1.58,2.12,6.27,6.27,0,0,1-.41,3.8,77.74,77.74,0,0,0-.69,44.39c1.07,3.78,2.44,7.52,2.81,11.43s-.41,8.14-3.11,11a15.32,15.32,0,0,1-4.13,2.9c-8.41,4.24-18.28,4.09-27.7,3.7-5.8-.25-11.66-.55-17.25-2.14s-10.95-4.58-14.34-9.3-4.6-11-5.05-17c-1-13.57.83-27.18,1.09-40.79.07-4,0-8-1.55-11.68,7.17-5,15.74-8,24.29-9.67a9.38,9.38,0,0,0,7.46,3.71,9,9,0,0,0,7.45-3.24" transform="translate(-28.43 -14.81)"/><path class="cls-18" d="M305.13,256c-.34-3.91,2.44-8.44,1.45-12.22-2.52-9.61-7.26-18.95-6.24-28.87a11.25,11.25,0,0,0-5.22,4.64,12.63,12.63,0,0,0-1.17,5.77c-.05,4,.69,7.9.85,11.86s-.34,8.14-2.57,11.38c-2.58,3.75-7,5.64-11.35,6.8a83.68,83.68,0,0,1-8.86,1.78,36.67,36.67,0,0,1-10.34.56,14.24,14.24,0,0,1-9.12-4.56c-3.58-4.26-3.47-10.43-4.12-16A49.9,49.9,0,0,0,243,219.55a10.36,10.36,0,0,0-3.41-4.22h0c-.54,9.94-6.29,20.37-5.61,30.28.41,6,6.46,11.65,9.69,16.52a24.21,24.21,0,0,0,13.25,9.3c5.16,1.58,10.57,1.89,15.93,2.13,8.69.39,17.81.55,25.57-3.7a13.76,13.76,0,0,0,3.81-2.9C304.75,264.1,305.47,259.86,305.13,256Z" transform="translate(-28.43 -14.81)"/><path class="cls-15" d="M241.91,191.65c3.24,14.42.45,31.43-3.15,45.77-1.07,4.26-.85,8.92.68,11.09s4.3,3.58,6.8,4.73a44.38,44.38,0,0,1,14.23,10.41,16.78,16.78,0,0,1,4.16,6.35,7.85,7.85,0,0,1-1.09,7.27,8.43,8.43,0,0,1-6.57,2.66,32.21,32.21,0,0,1-7.2-1.23,75.3,75.3,0,0,0-12.12-1.82c-3.53-.24-7.13-.24-10.52-1.23a20.21,20.21,0,0,1-11.53-9.2,24.13,24.13,0,0,1-3-14.56,51,51,0,0,1,1.66-7.91c2.9-10.8,6.89-20.26,10.56-30.82a56.26,56.26,0,0,1,6.89-12.94c2.65-3.73,5.7-7.8,10.21-8.57" transform="translate(-28.43 -14.81)"/><path class="cls-6" d="M243.09,219.11c2-8.91,1.26-18.77-.83-27.56a.36.36,0,0,0-.7.19,68.59,68.59,0,0,1,1.75,19.16,49,49,0,0,1-.92,8c-.1.46.6.66.7.2Z" transform="translate(-28.43 -14.81)"/><path class="cls-10" d="M269.67,270.1s-9.66-2.4-13.27-.33-9.1,5.09-8.93,8.94v1.57s25.88.76,28-1.57" transform="translate(-28.43 -14.81)"/><path class="cls-15" d="M298.51,190.56c4.73.55,9.91,6.07,13.19,10.84s5.51,10.17,7.71,15.52L331.79,247a49.06,49.06,0,0,1,3.19,9.54,24.47,24.47,0,0,1,.14,8.32,13.48,13.48,0,0,1-2.45,6.32c-2,2.53-5.15,3.83-8.17,5-6.37,2.43-12.9,4.7-19.7,5.16a74.73,74.73,0,0,1-8.06,0c-7.41-.27-14.85-.54-22.15-1.89a3.39,3.39,0,0,1-1.49-.54,3.44,3.44,0,0,1-.91-1.36l-2.2-4.81a5.84,5.84,0,0,1-.75-2.82,5.38,5.38,0,0,1,2-3.29A32.47,32.47,0,0,1,280,260.8c6.57-2.95,14.08-3.68,20.25-7.39a9.49,9.49,0,0,0,2.08-1.59c2.28-2.41,2.14-6.3.86-9.37s-2.17-6-3.42-9.06c-2.79-6.84-4.18-11.3-4.34-17.14-.21-8.32.41-17.8,3.07-25.69" transform="translate(-28.43 -14.81)"/><path class="cls-18" d="M273.46,264.91a20.15,20.15,0,0,1,2.13,3.86,32.65,32.65,0,0,1,2.67,10.92c0,.46.76.47.73,0a33.56,33.56,0,0,0-2.64-11,21.2,21.2,0,0,0-2.26-4.16c-.27-.37-.91,0-.63.37Z" transform="translate(-28.43 -14.81)"/><path class="cls-6" d="M295.48,219.5c-.6-9.53.13-19.83,3.38-28.84.16-.45-.55-.64-.71-.2-3.26,9.07-4,19.45-3.4,29,0,.47.76.47.73,0Z" transform="translate(-28.43 -14.81)"/><rect class="cls-19" x="31.07" y="267.74" width="345.1" height="6.3" rx="3.03"/><rect class="cls-20" x="168.4" y="264.81" width="117.71" height="2.93" rx="0.5"/><polygon class="cls-20" points="220.06 267.74 119.63 267.74 114.78 198.01 213.19 198.01 220.06 267.74"/><polygon class="cls-2" points="216.64 267.74 116.21 267.74 111.36 198.01 209.78 198.01 216.64 267.74"/><path class="cls-14" d="M140.63,224.87l4,57.62H245.07l-1.34-13.62C190.87,262,154.46,236.25,140.63,224.87Z" transform="translate(-28.43 -14.81)"/><circle class="cls-21" cx="161.74" cy="235.06" r="12.5"/><circle class="cls-22" cx="161.74" cy="235.06" r="12.5"/><path id="LEAR" class="cls-23" d="M183.09,244l2.2,3.65a.34.34,0,0,1,.05.17l.12,4.76a.33.33,0,0,0,.1.23l1.75,1.68a.34.34,0,0,0,.58-.25l-.18-7.11a.34.34,0,0,0-.05-.17L186,244.23a.34.34,0,0,0-.21-.16l-2.32-.55A.34.34,0,0,0,183.09,244Z" transform="translate(-28.43 -14.81)"/><path id="LEYE" class="cls-24" d="M187.7,247.18l.23,9.72a.27.27,0,0,0,.08.19l1.92,1.82a.26.26,0,0,0,.44-.19L190.1,247a.26.26,0,0,0-.27-.25l-1.79,0A.34.34,0,0,0,187.7,247.18Z" transform="translate(-28.43 -14.81)"/><path id="REYE" class="cls-25" d="M192.5,247.06l.23,9.73a.34.34,0,0,1-.07.19l-1.83,1.91a.26.26,0,0,1-.45-.17L190.1,247a.28.28,0,0,1,.26-.27l1.79,0A.33.33,0,0,1,192.5,247.06Z" transform="translate(-28.43 -14.81)"/><path id="REAR" class="cls-26" d="M197,243.7l-2,3.76a.32.32,0,0,0,0,.16l.11,4.76a.39.39,0,0,1-.1.25l-1.66,1.75a.34.34,0,0,1-.59-.22q-.07-3.56-.16-7.11a.26.26,0,0,1,.05-.17l1.53-2.84a.41.41,0,0,1,.2-.17l2.29-.65A.33.33,0,0,1,197,243.7Z" transform="translate(-28.43 -14.81)"/><path class="cls-27" d="M190.13,248.06l.16,9.76.07.11.06-.12Z" transform="translate(-28.43 -14.81)"/><path class="cls-28" d="M192.52,247.79c0,1.9.07,3.79.1,5.69l0,.07,0-.07C192.64,251.58,192.58,249.69,192.52,247.79Z" transform="translate(-28.43 -14.81)"/><path class="cls-29" d="M187.72,247.9l.09,5.69a.25.25,0,0,1,0,.07.25.25,0,0,0,0-.07C187.83,251.69,187.78,249.8,187.72,247.9Z" transform="translate(-28.43 -14.81)"/></svg>